<svg xmlns="http://www.w3.org/2000/svg" viewBox="0 0 820 264.6" width="820" height="264.6" font-family="ui-monospace,'SF Mono','JetBrains Mono','Cascadia Code','Fira Code',Menlo,Consolas,monospace" fill="none">
<!-- total=176 -->
  <rect x="1" y="1" width="818" height="262.6" rx="11" fill="none" stroke="#f0f6fc" stroke-opacity="0.22" stroke-width="1.5"/>
  <text x="30" y="48" font-size="15"><tspan fill="#f0f6fc" font-weight="700">$ </tspan><tspan fill="#8b949e">gh telemetry --user donovanbonner</tspan></text>
  <text x="30" y="92" font-size="24" font-weight="700" fill="#f0f6fc">176<tspan font-size="14" font-weight="400" fill="#8b949e">&#160;&#160;contributions in the last year</tspan></text>
  <text x="790" y="92" text-anchor="end" font-size="13" fill="#8b949e">7 public repos &#183; building since 2022</text>
  <text x="30.0" y="118" font-size="11" fill="#8b949e">Jul</text><text x="84.4" y="118" font-size="11" fill="#8b949e">Aug</text><text x="138.8" y="118" font-size="11" fill="#8b949e">Sep</text><text x="193.2" y="118" font-size="11" fill="#8b949e">Oct</text><text x="247.6" y="118" font-size="11" fill="#8b949e">Nov</text><text x="302.0" y="118" font-size="11" fill="#8b949e">Dec</text><text x="356.4" y="118" font-size="11" fill="#8b949e">Jan</text><text x="410.8" y="118" font-size="11" fill="#8b949e">Feb</text><text x="465.2" y="118" font-size="11" fill="#8b949e">Mar</text><text x="533.2" y="118" font-size="11" fill="#8b949e">Apr</text><text x="587.6" y="118" font-size="11" fill="#8b949e">May</text><text x="655.6" y="118" font-size="11" fill="#8b949e">Jun</text><text x="710.0" y="118" font-size="11" fill="#8b949e">Jul</text>
  <rect x="30.0" y="128.0" width="11" height="11" rx="2" fill="#f0f6fc" fill-opacity="0.08"/><rect x="30.0" y="141.6" width="11" height="11" rx="2" fill="#f0f6fc" fill-opacity="0.08"/><rect x="30.0" y="155.2" width="11" height="11" rx="2" fill="#f0f6fc" fill-opacity="0.08"/><rect x="30.0" y="168.8" width="11" height="11" rx="2" fill="#f0f6fc" fill-opacity="0.08"/><rect x="30.0" y="182.4" width="11" height="11" rx="2" fill="#f0f6fc" fill-opacity="0.08"/><rect x="30.0" y="196.0" width="11" height="11" rx="2" fill="#f0f6fc" fill-opacity="0.08"/><rect x="30.0" y="209.6" width="11" height="11" rx="2" fill="#f0f6fc" fill-opacity="0.08"/><rect x="43.6" y="128.0" width="11" height="11" rx="2" fill="#f0f6fc" fill-opacity="0.08"/><rect x="43.6" y="141.6" width="11" height="11" rx="2" fill="#f0f6fc" fill-opacity="0.08"/><rect x="43.6" y="155.2" width="11" height="11" rx="2" fill="#f0f6fc" fill-opacity="0.08"/><rect x="43.6" y="168.8" width="11" height="11" rx="2" fill="#f0f6fc" fill-opacity="0.08"/><rect x="43.6" y="182.4" width="11" height="11" rx="2" fill="#f0f6fc" fill-opacity="0.08"/><rect x="43.6" y="196.0" width="11" height="11" rx="2" fill="#f0f6fc" fill-opacity="0.08"/><rect x="43.6" y="209.6" width="11" height="11" rx="2" fill="#f0f6fc" fill-opacity="0.08"/><rect x="57.2" y="128.0" width="11" height="11" rx="2" fill="#f0f6fc" fill-opacity="0.08"/><rect x="57.2" y="141.6" width="11" height="11" rx="2" fill="#f0f6fc" fill-opacity="0.08"/><rect x="57.2" y="155.2" width="11" height="11" rx="2" fill="#f0f6fc" fill-opacity="0.08"/><rect x="57.2" y="168.8" width="11" height="11" rx="2" fill="#f0f6fc" fill-opacity="0.08"/><rect x="57.2" y="182.4" width="11" height="11" rx="2" fill="#f0f6fc" fill-opacity="0.08"/><rect x="57.2" y="196.0" width="11" height="11" rx="2" fill="#f0f6fc" fill-opacity="0.08"/><rect x="57.2" y="209.6" width="11" height="11" rx="2" fill="#f0f6fc" fill-opacity="0.08"/><rect x="70.8" y="128.0" width="11" height="11" rx="2" fill="#f0f6fc" fill-opacity="0.08"/><rect x="70.8" y="141.6" width="11" height="11" rx="2" fill="#f0f6fc" fill-opacity="0.08"/><rect x="70.8" y="155.2" width="11" height="11" rx="2" fill="#f0f6fc" fill-opacity="0.08"/><rect x="70.8" y="168.8" width="11" height="11" rx="2" fill="#f0f6fc" fill-opacity="0.08"/><rect x="70.8" y="182.4" width="11" height="11" rx="2" fill="#f0f6fc" fill-opacity="0.08"/><rect x="70.8" y="196.0" width="11" height="11" rx="2" fill="#f0f6fc" fill-opacity="0.08"/><rect x="70.8" y="209.6" width="11" height="11" rx="2" fill="#f0f6fc" fill-opacity="0.08"/><rect x="84.4" y="128.0" width="11" height="11" rx="2" fill="#f0f6fc" fill-opacity="0.08"/><rect x="84.4" y="141.6" width="11" height="11" rx="2" fill="#f0f6fc" fill-opacity="0.08"/><rect x="84.4" y="155.2" width="11" height="11" rx="2" fill="#f0f6fc" fill-opacity="0.08"/><rect x="84.4" y="168.8" width="11" height="11" rx="2" fill="#f0f6fc" fill-opacity="0.08"/><rect x="84.4" y="182.4" width="11" height="11" rx="2" fill="#f0f6fc" fill-opacity="0.08"/><rect x="84.4" y="196.0" width="11" height="11" rx="2" fill="#f0f6fc" fill-opacity="0.08"/><rect x="84.4" y="209.6" width="11" height="11" rx="2" fill="#f0f6fc" fill-opacity="0.08"/><rect x="98.0" y="128.0" width="11" height="11" rx="2" fill="#f0f6fc" fill-opacity="0.08"/><rect x="98.0" y="141.6" width="11" height="11" rx="2" fill="#f0f6fc" fill-opacity="0.08"/><rect x="98.0" y="155.2" width="11" height="11" rx="2" fill="#f0f6fc" fill-opacity="0.08"/><rect x="98.0" y="168.8" width="11" height="11" rx="2" fill="#f0f6fc" fill-opacity="0.08"/><rect x="98.0" y="182.4" width="11" height="11" rx="2" fill="#f0f6fc" fill-opacity="0.08"/><rect x="98.0" y="196.0" width="11" height="11" rx="2" fill="#f0f6fc" fill-opacity="0.08"/><rect x="98.0" y="209.6" width="11" height="11" rx="2" fill="#f0f6fc" fill-opacity="0.08"/><rect x="111.6" y="128.0" width="11" height="11" rx="2" fill="#f0f6fc" fill-opacity="0.08"/><rect x="111.6" y="141.6" width="11" height="11" rx="2" fill="#f0f6fc" fill-opacity="0.08"/><rect x="111.6" y="155.2" width="11" height="11" rx="2" fill="#f0f6fc" fill-opacity="0.08"/><rect x="111.6" y="168.8" width="11" height="11" rx="2" fill="#f0f6fc" fill-opacity="0.08"/><rect x="111.6" y="182.4" width="11" height="11" rx="2" fill="#f0f6fc" fill-opacity="0.08"/><rect x="111.6" y="196.0" width="11" height="11" rx="2" fill="#f0f6fc" fill-opacity="0.08"/><rect x="111.6" y="209.6" width="11" height="11" rx="2" fill="#f0f6fc" fill-opacity="0.08"/><rect x="125.2" y="128.0" width="11" height="11" rx="2" fill="#f0f6fc" fill-opacity="0.08"/><rect x="125.2" y="141.6" width="11" height="11" rx="2" fill="#f0f6fc" fill-opacity="0.08"/><rect x="125.2" y="155.2" width="11" height="11" rx="2" fill="#f0f6fc" fill-opacity="0.3"/><rect x="125.2" y="168.8" width="11" height="11" rx="2" fill="#f0f6fc" fill-opacity="0.08"/><rect x="125.2" y="182.4" width="11" height="11" rx="2" fill="#f0f6fc" fill-opacity="0.08"/><rect x="125.2" y="196.0" width="11" height="11" rx="2" fill="#f0f6fc" fill-opacity="0.08"/><rect x="125.2" y="209.6" width="11" height="11" rx="2" fill="#f0f6fc" fill-opacity="0.08"/><rect x="138.8" y="128.0" width="11" height="11" rx="2" fill="#f0f6fc" fill-opacity="0.08"/><rect x="138.8" y="141.6" width="11" height="11" rx="2" fill="#f0f6fc" fill-opacity="0.08"/><rect x="138.8" y="155.2" width="11" height="11" rx="2" fill="#f0f6fc" fill-opacity="0.08"/><rect x="138.8" y="168.8" width="11" height="11" rx="2" fill="#f0f6fc" fill-opacity="0.08"/><rect x="138.8" y="182.4" width="11" height="11" rx="2" fill="#f0f6fc" fill-opacity="0.08"/><rect x="138.8" y="196.0" width="11" height="11" rx="2" fill="#f0f6fc" fill-opacity="0.08"/><rect x="138.8" y="209.6" width="11" height="11" rx="2" fill="#f0f6fc" fill-opacity="0.08"/><rect x="152.4" y="128.0" width="11" height="11" rx="2" fill="#f0f6fc" fill-opacity="0.08"/><rect x="152.4" y="141.6" width="11" height="11" rx="2" fill="#f0f6fc" fill-opacity="0.08"/><rect x="152.4" y="155.2" width="11" height="11" rx="2" fill="#f0f6fc" fill-opacity="0.08"/><rect x="152.4" y="168.8" width="11" height="11" rx="2" fill="#f0f6fc" fill-opacity="0.08"/><rect x="152.4" y="182.4" width="11" height="11" rx="2" fill="#f0f6fc" fill-opacity="0.08"/><rect x="152.4" y="196.0" width="11" height="11" rx="2" fill="#f0f6fc" fill-opacity="0.08"/><rect x="152.4" y="209.6" width="11" height="11" rx="2" fill="#f0f6fc" fill-opacity="0.08"/><rect x="166.0" y="128.0" width="11" height="11" rx="2" fill="#f0f6fc" fill-opacity="0.08"/><rect x="166.0" y="141.6" width="11" height="11" rx="2" fill="#f0f6fc" fill-opacity="0.08"/><rect x="166.0" y="155.2" width="11" height="11" rx="2" fill="#f0f6fc" fill-opacity="0.08"/><rect x="166.0" y="168.8" width="11" height="11" rx="2" fill="#f0f6fc" fill-opacity="0.08"/><rect x="166.0" y="182.4" width="11" height="11" rx="2" fill="#f0f6fc" fill-opacity="0.08"/><rect x="166.0" y="196.0" width="11" height="11" rx="2" fill="#f0f6fc" fill-opacity="0.08"/><rect x="166.0" y="209.6" width="11" height="11" rx="2" fill="#f0f6fc" fill-opacity="0.08"/><rect x="179.6" y="128.0" width="11" height="11" rx="2" fill="#f0f6fc" fill-opacity="0.08"/><rect x="179.6" y="141.6" width="11" height="11" rx="2" fill="#f0f6fc" fill-opacity="0.08"/><rect x="179.6" y="155.2" width="11" height="11" rx="2" fill="#f0f6fc" fill-opacity="0.08"/><rect x="179.6" y="168.8" width="11" height="11" rx="2" fill="#f0f6fc" fill-opacity="0.08"/><rect x="179.6" y="182.4" width="11" height="11" rx="2" fill="#f0f6fc" fill-opacity="0.08"/><rect x="179.6" y="196.0" width="11" height="11" rx="2" fill="#f0f6fc" fill-opacity="0.08"/><rect x="179.6" y="209.6" width="11" height="11" rx="2" fill="#f0f6fc" fill-opacity="0.08"/><rect x="193.2" y="128.0" width="11" height="11" rx="2" fill="#f0f6fc" fill-opacity="0.08"/><rect x="193.2" y="141.6" width="11" height="11" rx="2" fill="#f0f6fc" fill-opacity="0.08"/><rect x="193.2" y="155.2" width="11" height="11" rx="2" fill="#f0f6fc" fill-opacity="0.08"/><rect x="193.2" y="168.8" width="11" height="11" rx="2" fill="#f0f6fc" fill-opacity="0.08"/><rect x="193.2" y="182.4" width="11" height="11" rx="2" fill="#f0f6fc" fill-opacity="0.08"/><rect x="193.2" y="196.0" width="11" height="11" rx="2" fill="#f0f6fc" fill-opacity="0.08"/><rect x="193.2" y="209.6" width="11" height="11" rx="2" fill="#f0f6fc" fill-opacity="0.08"/><rect x="206.8" y="128.0" width="11" height="11" rx="2" fill="#f0f6fc" fill-opacity="0.08"/><rect x="206.8" y="141.6" width="11" height="11" rx="2" fill="#f0f6fc" fill-opacity="0.08"/><rect x="206.8" y="155.2" width="11" height="11" rx="2" fill="#f0f6fc" fill-opacity="0.08"/><rect x="206.8" y="168.8" width="11" height="11" rx="2" fill="#f0f6fc" fill-opacity="0.08"/><rect x="206.8" y="182.4" width="11" height="11" rx="2" fill="#f0f6fc" fill-opacity="0.08"/><rect x="206.8" y="196.0" width="11" height="11" rx="2" fill="#f0f6fc" fill-opacity="0.08"/><rect x="206.8" y="209.6" width="11" height="11" rx="2" fill="#f0f6fc" fill-opacity="0.08"/><rect x="220.4" y="128.0" width="11" height="11" rx="2" fill="#f0f6fc" fill-opacity="0.08"/><rect x="220.4" y="141.6" width="11" height="11" rx="2" fill="#f0f6fc" fill-opacity="0.08"/><rect x="220.4" y="155.2" width="11" height="11" rx="2" fill="#f0f6fc" fill-opacity="0.08"/><rect x="220.4" y="168.8" width="11" height="11" rx="2" fill="#f0f6fc" fill-opacity="0.08"/><rect x="220.4" y="182.4" width="11" height="11" rx="2" fill="#f0f6fc" fill-opacity="0.08"/><rect x="220.4" y="196.0" width="11" height="11" rx="2" fill="#f0f6fc" fill-opacity="0.08"/><rect x="220.4" y="209.6" width="11" height="11" rx="2" fill="#f0f6fc" fill-opacity="0.08"/><rect x="234.0" y="128.0" width="11" height="11" rx="2" fill="#f0f6fc" fill-opacity="0.08"/><rect x="234.0" y="141.6" width="11" height="11" rx="2" fill="#f0f6fc" fill-opacity="0.08"/><rect x="234.0" y="155.2" width="11" height="11" rx="2" fill="#f0f6fc" fill-opacity="0.08"/><rect x="234.0" y="168.8" width="11" height="11" rx="2" fill="#f0f6fc" fill-opacity="0.08"/><rect x="234.0" y="182.4" width="11" height="11" rx="2" fill="#f0f6fc" fill-opacity="0.08"/><rect x="234.0" y="196.0" width="11" height="11" rx="2" fill="#f0f6fc" fill-opacity="0.08"/><rect x="234.0" y="209.6" width="11" height="11" rx="2" fill="#f0f6fc" fill-opacity="0.08"/><rect x="247.6" y="128.0" width="11" height="11" rx="2" fill="#f0f6fc" fill-opacity="0.08"/><rect x="247.6" y="141.6" width="11" height="11" rx="2" fill="#f0f6fc" fill-opacity="0.08"/><rect x="247.6" y="155.2" width="11" height="11" rx="2" fill="#f0f6fc" fill-opacity="0.08"/><rect x="247.6" y="168.8" width="11" height="11" rx="2" fill="#f0f6fc" fill-opacity="0.08"/><rect x="247.6" y="182.4" width="11" height="11" rx="2" fill="#f0f6fc" fill-opacity="0.08"/><rect x="247.6" y="196.0" width="11" height="11" rx="2" fill="#f0f6fc" fill-opacity="0.08"/><rect x="247.6" y="209.6" width="11" height="11" rx="2" fill="#f0f6fc" fill-opacity="0.08"/><rect x="261.2" y="128.0" width="11" height="11" rx="2" fill="#f0f6fc" fill-opacity="0.08"/><rect x="261.2" y="141.6" width="11" height="11" rx="2" fill="#f0f6fc" fill-opacity="0.08"/><rect x="261.2" y="155.2" width="11" height="11" rx="2" fill="#f0f6fc" fill-opacity="0.08"/><rect x="261.2" y="168.8" width="11" height="11" rx="2" fill="#f0f6fc" fill-opacity="0.08"/><rect x="261.2" y="182.4" width="11" height="11" rx="2" fill="#f0f6fc" fill-opacity="0.08"/><rect x="261.2" y="196.0" width="11" height="11" rx="2" fill="#f0f6fc" fill-opacity="0.08"/><rect x="261.2" y="209.6" width="11" height="11" rx="2" fill="#f0f6fc" fill-opacity="0.08"/><rect x="274.8" y="128.0" width="11" height="11" rx="2" fill="#f0f6fc" fill-opacity="0.08"/><rect x="274.8" y="141.6" width="11" height="11" rx="2" fill="#f0f6fc" fill-opacity="0.08"/><rect x="274.8" y="155.2" width="11" height="11" rx="2" fill="#f0f6fc" fill-opacity="0.08"/><rect x="274.8" y="168.8" width="11" height="11" rx="2" fill="#f0f6fc" fill-opacity="0.08"/><rect x="274.8" y="182.4" width="11" height="11" rx="2" fill="#f0f6fc" fill-opacity="0.08"/><rect x="274.8" y="196.0" width="11" height="11" rx="2" fill="#f0f6fc" fill-opacity="0.08"/><rect x="274.8" y="209.6" width="11" height="11" rx="2" fill="#f0f6fc" fill-opacity="0.08"/><rect x="288.4" y="128.0" width="11" height="11" rx="2" fill="#f0f6fc" fill-opacity="0.08"/><rect x="288.4" y="141.6" width="11" height="11" rx="2" fill="#f0f6fc" fill-opacity="0.08"/><rect x="288.4" y="155.2" width="11" height="11" rx="2" fill="#f0f6fc" fill-opacity="0.08"/><rect x="288.4" y="168.8" width="11" height="11" rx="2" fill="#f0f6fc" fill-opacity="0.08"/><rect x="288.4" y="182.4" width="11" height="11" rx="2" fill="#f0f6fc" fill-opacity="0.08"/><rect x="288.4" y="196.0" width="11" height="11" rx="2" fill="#f0f6fc" fill-opacity="0.08"/><rect x="288.4" y="209.6" width="11" height="11" rx="2" fill="#f0f6fc" fill-opacity="0.08"/><rect x="302.0" y="128.0" width="11" height="11" rx="2" fill="#f0f6fc" fill-opacity="0.08"/><rect x="302.0" y="141.6" width="11" height="11" rx="2" fill="#f0f6fc" fill-opacity="0.52"/><rect x="302.0" y="155.2" width="11" height="11" rx="2" fill="#f0f6fc" fill-opacity="0.52"/><rect x="302.0" y="168.8" width="11" height="11" rx="2" fill="#f0f6fc" fill-opacity="0.3"/><rect x="302.0" y="182.4" width="11" height="11" rx="2" fill="#f0f6fc" fill-opacity="0.3"/><rect x="302.0" y="196.0" width="11" height="11" rx="2" fill="#f0f6fc" fill-opacity="0.08"/><rect x="302.0" y="209.6" width="11" height="11" rx="2" fill="#f0f6fc" fill-opacity="0.08"/><rect x="315.6" y="128.0" width="11" height="11" rx="2" fill="#f0f6fc" fill-opacity="0.08"/><rect x="315.6" y="141.6" width="11" height="11" rx="2" fill="#f0f6fc" fill-opacity="0.08"/><rect x="315.6" y="155.2" width="11" height="11" rx="2" fill="#f0f6fc" fill-opacity="0.08"/><rect x="315.6" y="168.8" width="11" height="11" rx="2" fill="#f0f6fc" fill-opacity="0.08"/><rect x="315.6" y="182.4" width="11" height="11" rx="2" fill="#f0f6fc" fill-opacity="0.08"/><rect x="315.6" y="196.0" width="11" height="11" rx="2" fill="#f0f6fc" fill-opacity="0.08"/><rect x="315.6" y="209.6" width="11" height="11" rx="2" fill="#f0f6fc" fill-opacity="0.08"/><rect x="329.2" y="128.0" width="11" height="11" rx="2" fill="#f0f6fc" fill-opacity="0.08"/><rect x="329.2" y="141.6" width="11" height="11" rx="2" fill="#f0f6fc" fill-opacity="0.08"/><rect x="329.2" y="155.2" width="11" height="11" rx="2" fill="#f0f6fc" fill-opacity="0.08"/><rect x="329.2" y="168.8" width="11" height="11" rx="2" fill="#f0f6fc" fill-opacity="0.08"/><rect x="329.2" y="182.4" width="11" height="11" rx="2" fill="#f0f6fc" fill-opacity="0.08"/><rect x="329.2" y="196.0" width="11" height="11" rx="2" fill="#f0f6fc" fill-opacity="0.08"/><rect x="329.2" y="209.6" width="11" height="11" rx="2" fill="#f0f6fc" fill-opacity="0.08"/><rect x="342.8" y="128.0" width="11" height="11" rx="2" fill="#f0f6fc" fill-opacity="0.08"/><rect x="342.8" y="141.6" width="11" height="11" rx="2" fill="#f0f6fc" fill-opacity="0.08"/><rect x="342.8" y="155.2" width="11" height="11" rx="2" fill="#f0f6fc" fill-opacity="0.08"/><rect x="342.8" y="168.8" width="11" height="11" rx="2" fill="#f0f6fc" fill-opacity="0.08"/><rect x="342.8" y="182.4" width="11" height="11" rx="2" fill="#f0f6fc" fill-opacity="0.08"/><rect x="342.8" y="196.0" width="11" height="11" rx="2" fill="#f0f6fc" fill-opacity="0.08"/><rect x="342.8" y="209.6" width="11" height="11" rx="2" fill="#f0f6fc" fill-opacity="0.08"/><rect x="356.4" y="128.0" width="11" height="11" rx="2" fill="#f0f6fc" fill-opacity="0.08"/><rect x="356.4" y="141.6" width="11" height="11" rx="2" fill="#f0f6fc" fill-opacity="0.08"/><rect x="356.4" y="155.2" width="11" height="11" rx="2" fill="#f0f6fc" fill-opacity="0.08"/><rect x="356.4" y="168.8" width="11" height="11" rx="2" fill="#f0f6fc" fill-opacity="0.08"/><rect x="356.4" y="182.4" width="11" height="11" rx="2" fill="#f0f6fc" fill-opacity="0.08"/><rect x="356.4" y="196.0" width="11" height="11" rx="2" fill="#f0f6fc" fill-opacity="0.08"/><rect x="356.4" y="209.6" width="11" height="11" rx="2" fill="#f0f6fc" fill-opacity="0.08"/><rect x="370.0" y="128.0" width="11" height="11" rx="2" fill="#f0f6fc" fill-opacity="0.08"/><rect x="370.0" y="141.6" width="11" height="11" rx="2" fill="#f0f6fc" fill-opacity="0.08"/><rect x="370.0" y="155.2" width="11" height="11" rx="2" fill="#f0f6fc" fill-opacity="0.08"/><rect x="370.0" y="168.8" width="11" height="11" rx="2" fill="#f0f6fc" fill-opacity="0.08"/><rect x="370.0" y="182.4" width="11" height="11" rx="2" fill="#f0f6fc" fill-opacity="0.08"/><rect x="370.0" y="196.0" width="11" height="11" rx="2" fill="#f0f6fc" fill-opacity="0.08"/><rect x="370.0" y="209.6" width="11" height="11" rx="2" fill="#f0f6fc" fill-opacity="0.08"/><rect x="383.6" y="128.0" width="11" height="11" rx="2" fill="#f0f6fc" fill-opacity="0.08"/><rect x="383.6" y="141.6" width="11" height="11" rx="2" fill="#f0f6fc" fill-opacity="0.08"/><rect x="383.6" y="155.2" width="11" height="11" rx="2" fill="#f0f6fc" fill-opacity="0.08"/><rect x="383.6" y="168.8" width="11" height="11" rx="2" fill="#f0f6fc" fill-opacity="0.08"/><rect x="383.6" y="182.4" width="11" height="11" rx="2" fill="#f0f6fc" fill-opacity="0.08"/><rect x="383.6" y="196.0" width="11" height="11" rx="2" fill="#f0f6fc" fill-opacity="0.08"/><rect x="383.6" y="209.6" width="11" height="11" rx="2" fill="#f0f6fc" fill-opacity="0.08"/><rect x="397.2" y="128.0" width="11" height="11" rx="2" fill="#f0f6fc" fill-opacity="0.08"/><rect x="397.2" y="141.6" width="11" height="11" rx="2" fill="#f0f6fc" fill-opacity="0.08"/><rect x="397.2" y="155.2" width="11" height="11" rx="2" fill="#f0f6fc" fill-opacity="0.08"/><rect x="397.2" y="168.8" width="11" height="11" rx="2" fill="#f0f6fc" fill-opacity="0.08"/><rect x="397.2" y="182.4" width="11" height="11" rx="2" fill="#f0f6fc" fill-opacity="0.08"/><rect x="397.2" y="196.0" width="11" height="11" rx="2" fill="#f0f6fc" fill-opacity="0.08"/><rect x="397.2" y="209.6" width="11" height="11" rx="2" fill="#f0f6fc" fill-opacity="0.08"/><rect x="410.8" y="128.0" width="11" height="11" rx="2" fill="#f0f6fc" fill-opacity="0.08"/><rect x="410.8" y="141.6" width="11" height="11" rx="2" fill="#f0f6fc" fill-opacity="0.08"/><rect x="410.8" y="155.2" width="11" height="11" rx="2" fill="#f0f6fc" fill-opacity="0.08"/><rect x="410.8" y="168.8" width="11" height="11" rx="2" fill="#f0f6fc" fill-opacity="0.08"/><rect x="410.8" y="182.4" width="11" height="11" rx="2" fill="#f0f6fc" fill-opacity="0.08"/><rect x="410.8" y="196.0" width="11" height="11" rx="2" fill="#f0f6fc" fill-opacity="0.08"/><rect x="410.8" y="209.6" width="11" height="11" rx="2" fill="#f0f6fc" fill-opacity="0.08"/><rect x="424.4" y="128.0" width="11" height="11" rx="2" fill="#f0f6fc" fill-opacity="0.08"/><rect x="424.4" y="141.6" width="11" height="11" rx="2" fill="#f0f6fc" fill-opacity="0.08"/><rect x="424.4" y="155.2" width="11" height="11" rx="2" fill="#f0f6fc" fill-opacity="0.08"/><rect x="424.4" y="168.8" width="11" height="11" rx="2" fill="#f0f6fc" fill-opacity="0.08"/><rect x="424.4" y="182.4" width="11" height="11" rx="2" fill="#f0f6fc" fill-opacity="0.08"/><rect x="424.4" y="196.0" width="11" height="11" rx="2" fill="#f0f6fc" fill-opacity="0.08"/><rect x="424.4" y="209.6" width="11" height="11" rx="2" fill="#f0f6fc" fill-opacity="0.08"/><rect x="438.0" y="128.0" width="11" height="11" rx="2" fill="#f0f6fc" fill-opacity="0.08"/><rect x="438.0" y="141.6" width="11" height="11" rx="2" fill="#f0f6fc" fill-opacity="0.08"/><rect x="438.0" y="155.2" width="11" height="11" rx="2" fill="#f0f6fc" fill-opacity="0.08"/><rect x="438.0" y="168.8" width="11" height="11" rx="2" fill="#f0f6fc" fill-opacity="0.08"/><rect x="438.0" y="182.4" width="11" height="11" rx="2" fill="#f0f6fc" fill-opacity="0.08"/><rect x="438.0" y="196.0" width="11" height="11" rx="2" fill="#f0f6fc" fill-opacity="0.08"/><rect x="438.0" y="209.6" width="11" height="11" rx="2" fill="#f0f6fc" fill-opacity="0.08"/><rect x="451.6" y="128.0" width="11" height="11" rx="2" fill="#f0f6fc" fill-opacity="0.08"/><rect x="451.6" y="141.6" width="11" height="11" rx="2" fill="#f0f6fc" fill-opacity="0.08"/><rect x="451.6" y="155.2" width="11" height="11" rx="2" fill="#f0f6fc" fill-opacity="0.08"/><rect x="451.6" y="168.8" width="11" height="11" rx="2" fill="#f0f6fc" fill-opacity="0.08"/><rect x="451.6" y="182.4" width="11" height="11" rx="2" fill="#f0f6fc" fill-opacity="0.08"/><rect x="451.6" y="196.0" width="11" height="11" rx="2" fill="#f0f6fc" fill-opacity="0.08"/><rect x="451.6" y="209.6" width="11" height="11" rx="2" fill="#f0f6fc" fill-opacity="0.08"/><rect x="465.2" y="128.0" width="11" height="11" rx="2" fill="#f0f6fc" fill-opacity="0.08"/><rect x="465.2" y="141.6" width="11" height="11" rx="2" fill="#f0f6fc" fill-opacity="0.08"/><rect x="465.2" y="155.2" width="11" height="11" rx="2" fill="#f0f6fc" fill-opacity="0.08"/><rect x="465.2" y="168.8" width="11" height="11" rx="2" fill="#f0f6fc" fill-opacity="0.08"/><rect x="465.2" y="182.4" width="11" height="11" rx="2" fill="#f0f6fc" fill-opacity="0.08"/><rect x="465.2" y="196.0" width="11" height="11" rx="2" fill="#f0f6fc" fill-opacity="0.08"/><rect x="465.2" y="209.6" width="11" height="11" rx="2" fill="#f0f6fc" fill-opacity="0.08"/><rect x="478.8" y="128.0" width="11" height="11" rx="2" fill="#f0f6fc" fill-opacity="0.08"/><rect x="478.8" y="141.6" width="11" height="11" rx="2" fill="#f0f6fc" fill-opacity="0.08"/><rect x="478.8" y="155.2" width="11" height="11" rx="2" fill="#f0f6fc" fill-opacity="0.08"/><rect x="478.8" y="168.8" width="11" height="11" rx="2" fill="#f0f6fc" fill-opacity="0.08"/><rect x="478.8" y="182.4" width="11" height="11" rx="2" fill="#f0f6fc" fill-opacity="0.08"/><rect x="478.8" y="196.0" width="11" height="11" rx="2" fill="#f0f6fc" fill-opacity="0.08"/><rect x="478.8" y="209.6" width="11" height="11" rx="2" fill="#f0f6fc" fill-opacity="0.08"/><rect x="492.4" y="128.0" width="11" height="11" rx="2" fill="#f0f6fc" fill-opacity="0.08"/><rect x="492.4" y="141.6" width="11" height="11" rx="2" fill="#f0f6fc" fill-opacity="0.08"/><rect x="492.4" y="155.2" width="11" height="11" rx="2" fill="#f0f6fc" fill-opacity="0.08"/><rect x="492.4" y="168.8" width="11" height="11" rx="2" fill="#f0f6fc" fill-opacity="0.08"/><rect x="492.4" y="182.4" width="11" height="11" rx="2" fill="#f0f6fc" fill-opacity="0.08"/><rect x="492.4" y="196.0" width="11" height="11" rx="2" fill="#f0f6fc" fill-opacity="0.08"/><rect x="492.4" y="209.6" width="11" height="11" rx="2" fill="#f0f6fc" fill-opacity="0.08"/><rect x="506.0" y="128.0" width="11" height="11" rx="2" fill="#f0f6fc" fill-opacity="0.08"/><rect x="506.0" y="141.6" width="11" height="11" rx="2" fill="#f0f6fc" fill-opacity="0.08"/><rect x="506.0" y="155.2" width="11" height="11" rx="2" fill="#f0f6fc" fill-opacity="0.08"/><rect x="506.0" y="168.8" width="11" height="11" rx="2" fill="#f0f6fc" fill-opacity="0.08"/><rect x="506.0" y="182.4" width="11" height="11" rx="2" fill="#f0f6fc" fill-opacity="0.08"/><rect x="506.0" y="196.0" width="11" height="11" rx="2" fill="#f0f6fc" fill-opacity="0.08"/><rect x="506.0" y="209.6" width="11" height="11" rx="2" fill="#f0f6fc" fill-opacity="0.08"/><rect x="519.6" y="128.0" width="11" height="11" rx="2" fill="#f0f6fc" fill-opacity="0.08"/><rect x="519.6" y="141.6" width="11" height="11" rx="2" fill="#f0f6fc" fill-opacity="0.08"/><rect x="519.6" y="155.2" width="11" height="11" rx="2" fill="#f0f6fc" fill-opacity="0.08"/><rect x="519.6" y="168.8" width="11" height="11" rx="2" fill="#f0f6fc" fill-opacity="0.08"/><rect x="519.6" y="182.4" width="11" height="11" rx="2" fill="#f0f6fc" fill-opacity="0.08"/><rect x="519.6" y="196.0" width="11" height="11" rx="2" fill="#f0f6fc" fill-opacity="0.08"/><rect x="519.6" y="209.6" width="11" height="11" rx="2" fill="#f0f6fc" fill-opacity="0.08"/><rect x="533.2" y="128.0" width="11" height="11" rx="2" fill="#f0f6fc" fill-opacity="0.08"/><rect x="533.2" y="141.6" width="11" height="11" rx="2" fill="#f0f6fc" fill-opacity="0.08"/><rect x="533.2" y="155.2" width="11" height="11" rx="2" fill="#f0f6fc" fill-opacity="0.08"/><rect x="533.2" y="168.8" width="11" height="11" rx="2" fill="#f0f6fc" fill-opacity="0.08"/><rect x="533.2" y="182.4" width="11" height="11" rx="2" fill="#f0f6fc" fill-opacity="0.08"/><rect x="533.2" y="196.0" width="11" height="11" rx="2" fill="#f0f6fc" fill-opacity="0.08"/><rect x="533.2" y="209.6" width="11" height="11" rx="2" fill="#f0f6fc" fill-opacity="0.08"/><rect x="546.8" y="128.0" width="11" height="11" rx="2" fill="#f0f6fc" fill-opacity="0.08"/><rect x="546.8" y="141.6" width="11" height="11" rx="2" fill="#f0f6fc" fill-opacity="0.08"/><rect x="546.8" y="155.2" width="11" height="11" rx="2" fill="#f0f6fc" fill-opacity="0.08"/><rect x="546.8" y="168.8" width="11" height="11" rx="2" fill="#f0f6fc" fill-opacity="0.08"/><rect x="546.8" y="182.4" width="11" height="11" rx="2" fill="#f0f6fc" fill-opacity="0.08"/><rect x="546.8" y="196.0" width="11" height="11" rx="2" fill="#f0f6fc" fill-opacity="0.08"/><rect x="546.8" y="209.6" width="11" height="11" rx="2" fill="#f0f6fc" fill-opacity="0.08"/><rect x="560.4" y="128.0" width="11" height="11" rx="2" fill="#f0f6fc" fill-opacity="0.08"/><rect x="560.4" y="141.6" width="11" height="11" rx="2" fill="#f0f6fc" fill-opacity="0.08"/><rect x="560.4" y="155.2" width="11" height="11" rx="2" fill="#f0f6fc" fill-opacity="0.08"/><rect x="560.4" y="168.8" width="11" height="11" rx="2" fill="#f0f6fc" fill-opacity="0.08"/><rect x="560.4" y="182.4" width="11" height="11" rx="2" fill="#f0f6fc" fill-opacity="0.08"/><rect x="560.4" y="196.0" width="11" height="11" rx="2" fill="#f0f6fc" fill-opacity="0.08"/><rect x="560.4" y="209.6" width="11" height="11" rx="2" fill="#f0f6fc" fill-opacity="0.74"/><rect x="574.0" y="128.0" width="11" height="11" rx="2" fill="#f0f6fc" fill-opacity="0.3"/><rect x="574.0" y="141.6" width="11" height="11" rx="2" fill="#f0f6fc" fill-opacity="0.08"/><rect x="574.0" y="155.2" width="11" height="11" rx="2" fill="#f0f6fc" fill-opacity="0.74"/><rect x="574.0" y="168.8" width="11" height="11" rx="2" fill="#f0f6fc" fill-opacity="0.08"/><rect x="574.0" y="182.4" width="11" height="11" rx="2" fill="#f0f6fc" fill-opacity="0.08"/><rect x="574.0" y="196.0" width="11" height="11" rx="2" fill="#f0f6fc" fill-opacity="0.08"/><rect x="574.0" y="209.6" width="11" height="11" rx="2" fill="#f0f6fc" fill-opacity="0.08"/><rect x="587.6" y="128.0" width="11" height="11" rx="2" fill="#f0f6fc" fill-opacity="0.08"/><rect x="587.6" y="141.6" width="11" height="11" rx="2" fill="#f0f6fc" fill-opacity="0.08"/><rect x="587.6" y="155.2" width="11" height="11" rx="2" fill="#f0f6fc" fill-opacity="0.74"/><rect x="587.6" y="168.8" width="11" height="11" rx="2" fill="#f0f6fc" fill-opacity="0.08"/><rect x="587.6" y="182.4" width="11" height="11" rx="2" fill="#f0f6fc" fill-opacity="0.08"/><rect x="587.6" y="196.0" width="11" height="11" rx="2" fill="#f0f6fc" fill-opacity="0.08"/><rect x="587.6" y="209.6" width="11" height="11" rx="2" fill="#f0f6fc" fill-opacity="0.08"/><rect x="601.2" y="128.0" width="11" height="11" rx="2" fill="#f0f6fc" fill-opacity="0.08"/><rect x="601.2" y="141.6" width="11" height="11" rx="2" fill="#f0f6fc" fill-opacity="0.08"/><rect x="601.2" y="155.2" width="11" height="11" rx="2" fill="#f0f6fc" fill-opacity="0.08"/><rect x="601.2" y="168.8" width="11" height="11" rx="2" fill="#f0f6fc" fill-opacity="0.08"/><rect x="601.2" y="182.4" width="11" height="11" rx="2" fill="#f0f6fc" fill-opacity="0.08"/><rect x="601.2" y="196.0" width="11" height="11" rx="2" fill="#f0f6fc" fill-opacity="0.08"/><rect x="601.2" y="209.6" width="11" height="11" rx="2" fill="#f0f6fc" fill-opacity="0.08"/><rect x="614.8" y="128.0" width="11" height="11" rx="2" fill="#f0f6fc" fill-opacity="0.08"/><rect x="614.8" y="141.6" width="11" height="11" rx="2" fill="#f0f6fc" fill-opacity="0.08"/><rect x="614.8" y="155.2" width="11" height="11" rx="2" fill="#f0f6fc" fill-opacity="0.08"/><rect x="614.8" y="168.8" width="11" height="11" rx="2" fill="#f0f6fc" fill-opacity="0.08"/><rect x="614.8" y="182.4" width="11" height="11" rx="2" fill="#f0f6fc" fill-opacity="0.08"/><rect x="614.8" y="196.0" width="11" height="11" rx="2" fill="#f0f6fc" fill-opacity="0.08"/><rect x="614.8" y="209.6" width="11" height="11" rx="2" fill="#f0f6fc" fill-opacity="0.08"/><rect x="628.4" y="128.0" width="11" height="11" rx="2" fill="#f0f6fc" fill-opacity="0.08"/><rect x="628.4" y="141.6" width="11" height="11" rx="2" fill="#f0f6fc" fill-opacity="0.08"/><rect x="628.4" y="155.2" width="11" height="11" rx="2" fill="#f0f6fc" fill-opacity="0.08"/><rect x="628.4" y="168.8" width="11" height="11" rx="2" fill="#f0f6fc" fill-opacity="0.08"/><rect x="628.4" y="182.4" width="11" height="11" rx="2" fill="#f0f6fc" fill-opacity="0.08"/><rect x="628.4" y="196.0" width="11" height="11" rx="2" fill="#f0f6fc" fill-opacity="0.08"/><rect x="628.4" y="209.6" width="11" height="11" rx="2" fill="#f0f6fc" fill-opacity="0.08"/><rect x="642.0" y="128.0" width="11" height="11" rx="2" fill="#f0f6fc" fill-opacity="0.08"/><rect x="642.0" y="141.6" width="11" height="11" rx="2" fill="#f0f6fc" fill-opacity="0.08"/><rect x="642.0" y="155.2" width="11" height="11" rx="2" fill="#f0f6fc" fill-opacity="0.08"/><rect x="642.0" y="168.8" width="11" height="11" rx="2" fill="#f0f6fc" fill-opacity="0.08"/><rect x="642.0" y="182.4" width="11" height="11" rx="2" fill="#f0f6fc" fill-opacity="0.08"/><rect x="642.0" y="196.0" width="11" height="11" rx="2" fill="#f0f6fc" fill-opacity="0.08"/><rect x="642.0" y="209.6" width="11" height="11" rx="2" fill="#f0f6fc" fill-opacity="0.08"/><rect x="655.6" y="128.0" width="11" height="11" rx="2" fill="#f0f6fc" fill-opacity="0.08"/><rect x="655.6" y="141.6" width="11" height="11" rx="2" fill="#f0f6fc" fill-opacity="0.08"/><rect x="655.6" y="155.2" width="11" height="11" rx="2" fill="#f0f6fc" fill-opacity="0.08"/><rect x="655.6" y="168.8" width="11" height="11" rx="2" fill="#f0f6fc" fill-opacity="0.08"/><rect x="655.6" y="182.4" width="11" height="11" rx="2" fill="#f0f6fc" fill-opacity="0.08"/><rect x="655.6" y="196.0" width="11" height="11" rx="2" fill="#f0f6fc" fill-opacity="0.08"/><rect x="655.6" y="209.6" width="11" height="11" rx="2" fill="#f0f6fc" fill-opacity="0.08"/><rect x="669.2" y="128.0" width="11" height="11" rx="2" fill="#f0f6fc" fill-opacity="0.08"/><rect x="669.2" y="141.6" width="11" height="11" rx="2" fill="#f0f6fc" fill-opacity="0.08"/><rect x="669.2" y="155.2" width="11" height="11" rx="2" fill="#f0f6fc" fill-opacity="0.08"/><rect x="669.2" y="168.8" width="11" height="11" rx="2" fill="#f0f6fc" fill-opacity="0.08"/><rect x="669.2" y="182.4" width="11" height="11" rx="2" fill="#f0f6fc" fill-opacity="0.08"/><rect x="669.2" y="196.0" width="11" height="11" rx="2" fill="#f0f6fc" fill-opacity="0.08"/><rect x="669.2" y="209.6" width="11" height="11" rx="2" fill="#f0f6fc" fill-opacity="0.08"/><rect x="682.8" y="128.0" width="11" height="11" rx="2" fill="#f0f6fc" fill-opacity="0.08"/><rect x="682.8" y="141.6" width="11" height="11" rx="2" fill="#f0f6fc" fill-opacity="0.08"/><rect x="682.8" y="155.2" width="11" height="11" rx="2" fill="#f0f6fc" fill-opacity="0.08"/><rect x="682.8" y="168.8" width="11" height="11" rx="2" fill="#f0f6fc" fill-opacity="0.08"/><rect x="682.8" y="182.4" width="11" height="11" rx="2" fill="#f0f6fc" fill-opacity="0.08"/><rect x="682.8" y="196.0" width="11" height="11" rx="2" fill="#f0f6fc" fill-opacity="0.08"/><rect x="682.8" y="209.6" width="11" height="11" rx="2" fill="#f0f6fc" fill-opacity="0.08"/><rect x="696.4" y="128.0" width="11" height="11" rx="2" fill="#f0f6fc" fill-opacity="1.0"/><rect x="696.4" y="141.6" width="11" height="11" rx="2" fill="#f0f6fc" fill-opacity="1.0"/><rect x="696.4" y="155.2" width="11" height="11" rx="2" fill="#f0f6fc" fill-opacity="1.0"/><rect x="696.4" y="168.8" width="11" height="11" rx="2" fill="#f0f6fc" fill-opacity="0.74"/><rect x="696.4" y="182.4" width="11" height="11" rx="2" fill="#f0f6fc" fill-opacity="1.0"/><rect x="696.4" y="196.0" width="11" height="11" rx="2" fill="#f0f6fc" fill-opacity="0.52"/><rect x="696.4" y="209.6" width="11" height="11" rx="2" fill="#f0f6fc" fill-opacity="0.08"/><rect x="710.0" y="128.0" width="11" height="11" rx="2" fill="#f0f6fc" fill-opacity="0.08"/><rect x="710.0" y="141.6" width="11" height="11" rx="2" fill="#f0f6fc" fill-opacity="0.08"/><rect x="710.0" y="155.2" width="11" height="11" rx="2" fill="#f0f6fc" fill-opacity="0.08"/><rect x="710.0" y="168.8" width="11" height="11" rx="2" fill="#f0f6fc" fill-opacity="0.08"/><rect x="710.0" y="182.4" width="11" height="11" rx="2" fill="#f0f6fc" fill-opacity="0.08"/><rect x="710.0" y="196.0" width="11" height="11" rx="2" fill="#f0f6fc" fill-opacity="0.08"/><rect x="710.0" y="209.6" width="11" height="11" rx="2" fill="#f0f6fc" fill-opacity="0.3"/><rect x="723.6" y="128.0" width="11" height="11" rx="2" fill="#f0f6fc" fill-opacity="0.08"/><rect x="723.6" y="141.6" width="11" height="11" rx="2" fill="#f0f6fc" fill-opacity="0.08"/><rect x="723.6" y="155.2" width="11" height="11" rx="2" fill="#f0f6fc" fill-opacity="0.08"/><rect x="723.6" y="168.8" width="11" height="11" rx="2" fill="#f0f6fc" fill-opacity="0.52"/><rect x="723.6" y="182.4" width="11" height="11" rx="2" fill="#f0f6fc" fill-opacity="1.0"/><rect x="723.6" y="196.0" width="11" height="11" rx="2" fill="#f0f6fc" fill-opacity="0.52"/><rect x="723.6" y="209.6" width="11" height="11" rx="2" fill="#f0f6fc" fill-opacity="0.52"/><rect x="737.2" y="128.0" width="11" height="11" rx="2" fill="#f0f6fc" fill-opacity="0.3"/><rect x="737.2" y="141.6" width="11" height="11" rx="2" fill="#f0f6fc" fill-opacity="0.52"/><rect x="737.2" y="155.2" width="11" height="11" rx="2" fill="#f0f6fc" fill-opacity="0.3"/>
  <text x="612" y="246.6" font-size="11" fill="#8b949e">less</text><rect x="646" y="237.6" width="11" height="11" rx="2" fill="#f0f6fc" fill-opacity="0.08"/><rect x="661" y="237.6" width="11" height="11" rx="2" fill="#f0f6fc" fill-opacity="0.3"/><rect x="676" y="237.6" width="11" height="11" rx="2" fill="#f0f6fc" fill-opacity="0.52"/><rect x="691" y="237.6" width="11" height="11" rx="2" fill="#f0f6fc" fill-opacity="0.74"/><rect x="706" y="237.6" width="11" height="11" rx="2" fill="#f0f6fc" fill-opacity="1.0"/><text x="725" y="246.6" font-size="11" fill="#8b949e">more</text>
  <text x="30" y="246.6" font-size="12" fill="#8b949e">languages&#160;&#160;<tspan fill="#f0f6fc">swift · typescript · python · java · c# · c++</tspan></text>
</svg>
